Coordinates
version=1
nRows=18
nColumns=22
inDegrees=yes

Units are S.I. units (second, meters, Newtons, ...)
If the header above contains a line with 'inDegrees', this indicates whether rotational values are in degrees (yes) or radians (no).

endheader
time	pelvis_tilt	pelvis_list	pelvis_rotation	pelvis_tx	pelvis_ty	pelvis_tz	hip_flexion_r	hip_adduction_r	hip_rotation_r	knee_angle_r	ankle_angle_r	subtalar_angle_r	hip_flexion_l	hip_adduction_l	hip_rotation_l	knee_angle_l	ankle_angle_l	subtalar_angle_l	lumbar_extension	lumbar_bending	lumbar_rotation
      5.44000000	     -6.80664274	     -6.88093200	    275.21038313	     -0.85924487	      0.94390227	      0.18178562	      7.95832205	      4.74510145	    -12.71902677	    -18.57563243	      3.97170084	      3.80486686	     -2.92770965	     -7.33202879	      9.66316073	    -53.13430377	     -0.95556272	      0.33745692	    -11.16232018	      6.40809597	    -14.23616633
      5.45000000	     -7.07957364	     -6.94126629	    275.44858407	     -0.86179700	      0.94393974	      0.18731364	      7.61627541	      5.27543436	    -12.85888473	    -18.66691803	      4.30655671	      3.55672730	     -1.59773829	     -7.88766829	      9.24658294	    -55.11094422	     -0.68114819	      0.27116804	    -11.32717548	      6.68283334	    -13.84598991
      5.46000000	     -7.30048785	     -7.04460148	    275.60993102	     -0.86435420	      0.94408164	      0.19273879	      7.22515511	      5.77989188	    -12.83575945	    -18.73608686	      4.70151162	      3.24337123	     -0.37617366	     -8.37049550	      8.80778543	    -56.87862000	     -0.08533591	     -0.18186658	    -11.55054336	      6.89426422	    -13.42965985
      5.47000000	     -7.47750651	     -7.18216254	    275.67519724	     -0.86696792	      0.94432361	      0.19803861	      6.81525261	      6.25700478	    -12.68844048	    -18.82294182	      4.98623234	      2.95591876	      0.73314525	     -8.81072640	      8.28434733	    -58.41856537	      0.83167227	     -0.81221117	    -11.82677743	      7.04477003	    -12.97402241
      5.48000000	     -7.57416122	     -7.33969225	    275.68661185	     -0.86957175	      0.94467142	      0.20320881	      6.38318324	      6.65684159	    -12.47013634	    -18.91007798	      5.32197028	      2.59653285	      1.74263028	     -9.15019903	      7.73845383	    -59.71666884	      1.98030847	     -1.73580335	    -12.13665425	      7.09208297	    -12.48972267
      5.49000000	     -7.57557329	     -7.53407867	    275.67148608	     -0.87210208	      0.94516102	      0.20823228	      5.91153146	      6.95383090	    -12.23305303	    -19.00745285	      5.68022330	      2.17908248	      2.62531699	     -9.36257679	      7.19919749	    -60.75407642	      3.34429826	     -2.84969404	    -12.49924282	      7.02894375	    -12.03082459
      5.50000000	     -7.52829489	     -7.73736338	    275.62450232	     -0.87459683	      0.94575361	      0.21311637	      5.41534611	      7.20291649	    -11.95052714	    -19.07124755	      5.98575181	      1.74163992	      3.41992804	     -9.50158474	      6.65638162	    -61.53926182	      4.80843376	     -3.97528894	    -12.87541922	      6.89993705	    -11.53350478
      5.51000000	     -7.42314225	     -7.95995768	    275.56010931	     -0.87700732	      0.94645616	      0.21784159	      4.89456047	      7.38480325	    -11.65008404	    -19.12776512	      6.25089155	      1.27779290	      4.11250337	     -9.55085075	      6.11709170	    -62.06424680	      6.34413682	     -5.09285511	    -13.27910597	      6.70407922	    -11.03928835
      5.52000000	     -7.26278244	     -8.18843124	    275.51257047	     -0.87926543	      0.94724181	      0.22243449	      4.34893548	      7.49471817	    -11.38241472	    -19.15074665	      6.52751723	      0.79990547	      4.72230507	     -9.49422777	      5.63017280	    -62.32824037	      7.90620898	     -6.16785653	    -13.68391542	      6.44955778	    -10.56608463
      5.53000000	     -7.05695580	     -8.41900227	    275.47185856	     -0.88137458	      0.94809147	      0.22687815	      3.79064136	      7.54287207	    -11.11792990	    -19.15158325	      6.76192490	      0.32703817	      5.24989434	     -9.34158061	      5.17608937	    -62.32742613	      9.44277602	     -7.10969411	    -14.09017941	      6.15079780	    -10.10903623
      5.54000000	     -6.81752626	     -8.64711433	    275.44218199	     -0.88332888	      0.94898022	      0.23120196	      3.22399265	      7.53593251	    -10.89104427	    -19.12882476	      6.96521110	     -0.12225813	      5.69810976	     -9.10854351	      4.74869932	    -62.05913214	     10.90615785	     -7.86099061	    -14.48691481	      5.82186150	     -9.66079027
      5.55000000	     -6.55927597	     -8.85617510	    275.42407995	     -0.88513771	      0.94986052	      0.23542360	      2.66524490	      7.49124362	    -10.68290847	    -19.07788994	      7.17163454	     -0.52801038	      6.08641507	     -8.81960211	      4.33037893	    -61.52791012	     12.27441216	     -8.38974079	    -14.85125694	      5.47995665	     -9.24608757
      5.56000000	     -6.30029708	     -9.03914805	    275.42733297	     -0.88677917	      0.95069329	      0.23953602	      2.13646411	      7.41994178	    -10.53588466	    -19.02085700	      7.35067875	     -0.89663484	      6.43033207	     -8.49159467	      3.93739930	    -60.74922428	     13.54902571	     -8.71598268	    -15.17611183	      5.14891275	     -8.84569608
      5.57000000	     -6.04772925	     -9.19849010	    275.43505674	     -0.88830536	      0.95148071	      0.24357818	      1.62468942	      7.33795844	    -10.40577179	    -18.94166128	      7.51999776	     -1.19904212	      6.71658622	     -8.15311344	      3.52850970	    -59.72021279	     14.71174905	     -8.81356878	    -15.46064182	      4.83077084	     -8.45948215
      5.58000000	     -5.81658006	     -9.32174900	    275.44541527	     -0.88972157	      0.95218717	      0.24756775	      1.14874865	      7.25918974	    -10.29739384	    -18.84859585	      7.69695079	     -1.41882859	      6.95933726	     -7.82284614	      3.10640863	    -58.45596513	     15.77788789	     -8.71916572	    -15.68683660	      4.54111136	     -8.06814401
      5.59000000	     -5.60883987	     -9.42131716	    275.46474655	     -0.89103084	      0.95283503	      0.25153100	      0.68831747	      7.18877994	    -10.22478212	    -18.73026200	      7.82890172	     -1.63151394	      7.14221614	     -7.51672019	      2.66130612	    -56.96666300	     16.76844381	     -8.51062545	    -15.86390329	      4.28474177	     -7.71536267
      5.60000000	     -5.42931141	     -9.50151284	    275.49108074	     -0.89223952	      0.95342700	      0.25548108	      0.23833599	      7.13459326	    -10.18261414	    -18.58491111	      7.92213440	     -1.84604817	      7.26103174	     -7.24620667	      2.19372600	    -55.27396283	     17.67424669	     -8.15927607	    -15.99455551	      4.06734393	     -7.39933308
      5.61000000	     -5.27953803	     -9.54311898	    275.52238773	     -0.89335101	      0.95392676	      0.25940542	     -0.17936198	      7.10156925	    -10.13626034	    -18.41212411	      8.03543990	     -1.97531370	      7.34153700	     -7.00399668	      1.72798643	    -53.41008644	     18.50821270	     -7.72975769	    -16.05800550	      3.88751865	     -7.08788409
